<?xml version="1.0" encoding="UTF-8" standalone="no"?>
<!-- Created with Inkscape (http://www.inkscape.org/) -->

<svg
   xmlns:dc="http://purl.org/dc/elements/1.1/"
   xmlns:cc="http://creativecommons.org/ns#"
   xmlns:rdf="http://www.w3.org/1999/02/22-rdf-syntax-ns#"
   xmlns:svg="http://www.w3.org/2000/svg"
   xmlns="http://www.w3.org/2000/svg"
   xmlns:sodipodi="http://sodipodi.sourceforge.net/DTD/sodipodi-0.dtd"
   xmlns:inkscape="http://www.inkscape.org/namespaces/inkscape"
   id="svg4150"
   version="1.1"
   inkscape:version="0.91 r13725"
   width="85"
   height="19"
   viewBox="0 0 85.000002 19"
   sodipodi:docname="mustache.svg">
  <metadata
     id="metadata4156">
    <rdf:RDF>
      <cc:Work
         rdf:about="">
        <dc:format>image/svg+xml</dc:format>
        <dc:type
           rdf:resource="http://purl.org/dc/dcmitype/StillImage" />
        <dc:title></dc:title>
      </cc:Work>
    </rdf:RDF>
  </metadata>
  <defs
     id="defs4154" />
  <sodipodi:namedview
     pagecolor="#ffffff"
     bordercolor="#666666"
     borderopacity="1"
     objecttolerance="10"
     gridtolerance="10"
     guidetolerance="10"
     inkscape:pageopacity="0"
     inkscape:pageshadow="2"
     inkscape:window-width="1920"
     inkscape:window-height="1116"
     id="namedview4152"
     showgrid="false"
     inkscape:zoom="9.3234569"
     inkscape:cx="31.255537"
     inkscape:cy="1.4960038"
     inkscape:window-x="-8"
     inkscape:window-y="-8"
     inkscape:window-maximized="1"
     inkscape:current-layer="svg4150" />
  <path
     style="fill:#000000"
     d="m 38.987884,0.24537262 c -0.11307,0.007 -1.296561,0.0268 -2.630859,0.0449 -1.334309,0.0181 -2.465662,0.0351 -2.513672,0.0391 -0.04801,0.003 -0.161393,0.0758 -0.251953,0.16016 -0.09058,0.0843 -0.273465,0.15234 -0.40625,0.15234 -0.500833,-0.001 -1.222773,0.10940999 -1.386719,0.21289 -0.318466,0.20092998 -1.547352,0.58952018 -1.802734,0.57032018 -0.09409,-0.007 -0.227265,0.0409 -0.296875,0.10546 -0.412942,0.3828702 -0.741192,0.6038202 -1.03125,0.6953203 -0.372242,0.11744 -0.385668,0.12314 -0.845703,0.42968 -0.18471,0.12307 -0.441001,0.35602 -0.56836,0.51563 -0.127357,0.15958 -0.271662,0.28906 -0.320312,0.28906 -0.04865,0 -0.172206,0.0894 -0.275391,0.19922 -0.103159,0.10984 -0.233776,0.18206 -0.291015,0.16016 -0.0572,-0.022 -0.158147,0.0136 -0.222657,0.0781 -0.113719,0.11387 -0.517184,0.27859 -0.521484,0.21289 -0.0011,-0.0179 -0.108907,0.0507 -0.238281,0.15235 -0.129377,0.10175 -0.28678,0.18359 -0.34961,0.18359 -0.06289,0 -0.14714,0.0872 -0.1875,0.19336 -0.07522,0.19785 -0.891216,0.79418 -1.08789,0.79492 -0.06018,2e-4 -0.298844,0.14412 -0.53125,0.32031 -0.232398,0.17621 -0.556091,0.38384 -0.71875,0.46094 -0.162644,0.0772 -0.374544,0.26822 -0.470704,0.42383 -0.114244,0.18487 -0.258553,0.30003 -0.417968,0.33203 -0.153939,0.0308 -0.27188,0.11987 -0.31836,0.24219 -0.04057,0.10664 -0.105411,0.19336 -0.144531,0.19336 -0.03909,0 -0.114446,0.092 -0.166015,0.20508 -0.05151,0.11309 -0.129592,0.20703 -0.175782,0.20703 -0.0462,0 -0.15954,0.0736 -0.25,0.16406 -0.09046,0.0906 -0.219249,0.16406 -0.287109,0.16406 -0.06788,0 -0.123047,0.0368 -0.123047,0.082 0,0.0453 -0.0736,0.082 -0.164062,0.082 -0.09046,0 -0.166016,0.0333 -0.166016,0.0742 0,0.12483 -0.761075,0.83282 -1.035156,0.96289 -0.141965,0.0674 -0.335168,0.19521 -0.429688,0.28321 -0.0945,0.088 -0.349493,0.21947 -0.566406,0.29297 -0.216922,0.0736 -0.481954,0.2041599 -0.589844,0.2890589 -0.107873,0.085 -0.304759,0.15429 -0.4375,0.15429 -0.132753,0 -0.397897,0.108139 -0.589844,0.240239 -0.191931,0.132049 -0.490946,0.266429 -0.664062,0.298829 -0.173118,0.0325 -0.503939,0.128789 -0.734375,0.212889 -0.230455,0.0842 -0.508632,0.152339 -0.619141,0.152339 -0.223657,0 -0.680372,0.13181 -0.99414,0.28711 -0.113073,0.056 -0.494869,0.1259 -0.847657,0.1543 -0.352787,0.0283 -0.713904,0.0891 -0.802734,0.13672 -0.110337,0.059 -0.257179,0.0602 -0.460937,0.004 -0.191772,-0.0535 -0.350573,-0.0546 -0.445313,-0.004 -0.185379,0.0983 -2.4700274,0.10406 -2.7246094,0.006 -0.103908,-0.0401 -0.425272,-0.11633 -0.714844,-0.16993 -0.751909,-0.13905 -1.464768,-0.42453 -2.71875,-1.083977 -0.247511,-0.1302 -0.507875,-0.236329 -0.578125,-0.236329 -0.07032,0 -0.209991,-0.0565 -0.310547,-0.12695 -0.100605,-0.0704 -0.220455,-0.106129 -0.265625,-0.0781 -0.04517,0.0279 -0.08203,-0.004 -0.08203,-0.0703 0,-0.0767 -0.117926,-0.1412796 -0.322266,-0.1757796 -0.177384,-0.03 -0.342387,-0.10738 -0.367187,-0.17188 -0.02496,-0.0652 -0.153329,-0.11718 -0.289063,-0.11718 -0.134439,0 -0.268945,-0.0368 -0.296875,-0.082 -0.07404,-0.11974 -0.385726,-0.0947 -0.570312,0.0449 -0.0878,0.0665 -0.235035,0.122 -0.328125,0.125 -0.10241596,0.003 -0.28925889,0.16 -0.47070389,0.3984396 -0.272311,0.357859 -0.304471,0.459369 -0.357421,1.095697 -0.04028,0.482519 -0.0295,0.717159 0.0332,0.755859 0.0501,0.031 0.08984,0.12899 0.08984,0.21679 -1e-6,0.0878 0.04535,0.16016 0.09961,0.16016 0.0743,0 0.07568,0.0239 0.0059,0.0937 -0.121872,0.12187 0.324018,0.69412 0.59374989,0.76172 0.103741,0.026 0.368256,0.23434 0.587891,0.46289 0.219613,0.22858 0.510793,0.47467 0.646484,0.54687 0.135689,0.0722 0.501263,0.30136 0.8125,0.50977 0.311245,0.2084 0.624836,0.41574 0.697266,0.46094 0.07247,0.0452 0.289442,0.18602 0.482422,0.3125 0.192986,0.12661 0.351562,0.20563 0.351562,0.17383 0,-0.0319 0.06536,-0.001 0.144531,0.0684 0.07916,0.0699 0.402133,0.24426 0.71875,0.38671 0.695851,0.3131 0.967365,0.45541 1.398438,0.74024 0.569497,0.3763 1.386543,0.73719 1.685547,0.74219 0.158309,0.003 0.360179,0.007 0.449219,0.008 0.08902,0.001 0.23015,0.0738 0.3125,0.16211 0.08235,0.0885 0.22046,0.16015 0.30664,0.16015 0.08614,0 0.204552,0.0688 0.2636718,0.15235 0.08122,0.11466 0.2268236,0.15637 0.5957036,0.16797 0.268466,0.008 0.528032,0.0465 0.576172,0.084 0.147305,0.11521 0.694401,0.16614 1.855469,0.17774 0.610612,0.006 1.258524,0.0382 1.439453,0.0723 l -0.002,0.002 c 0.337805,0.0635 3.520852,0.0522 3.742187,-0.0137 0.06784,-0.0202 0.309008,-0.0668 0.535157,-0.10351 0.226159,-0.0366 0.492237,-0.12065 0.591796,-0.18555 0.190275,-0.12418 0.310327,-0.14878 1.175782,-0.23828 0.293992,-0.0304 0.608005,-0.10482 0.697265,-0.16602 0.08921,-0.0613 0.283397,-0.11133 0.431641,-0.11133 0.148226,10e-6 0.269531,-0.0333 0.269531,-0.0742 0,-0.0849 1.497587,-0.83008 1.667969,-0.83008 0.06187,0 0.257869,-0.10975 0.435547,-0.24414 0.177661,-0.13447 0.387627,-0.24733 0.466797,-0.24805 0.07913,-0.001 0.142578,-0.0345 0.142578,-0.0742 0,-0.10505 0.841097,-0.66797 0.998047,-0.66797 0.07323,0 0.177368,-0.0513 0.230469,-0.11523 0.09727,-0.1172 1.069906,-0.60589 1.527343,-0.76758 0.474194,-0.1676 0.822481,-0.30871 0.863281,-0.34961 0.07988,-0.0799 0.410102,-0.24805 0.488282,-0.24805 0.116607,0 0.828125,-0.49331 0.828125,-0.57421 0,-0.12076 1.680813,-0.71844 2.173828,-0.77344 0.09351,-0.0104 0.250809,-0.0638 0.349609,-0.11719 0.09879,-0.0534 0.25296,-0.0977 0.34375,-0.0977 0.09078,0 0.188437,-0.036 0.216797,-0.082 0.02836,-0.0457 0.08874,-0.0623 0.132813,-0.0352 0.04407,0.0272 0.198706,-0.0406 0.34375,-0.15039 0.145044,-0.10979 0.401948,-0.22105 0.572265,-0.24805 0.170309,-0.0271 0.410106,-0.12736 0.53125,-0.22266 0.163255,-0.12837 0.326636,-0.17106 0.634766,-0.16406 0.427954,0.009 0.909628,-0.0488 1.033203,-0.125 0.03851,-0.0239 0.09461,-0.005 0.123047,0.041 0.06392,0.1044 0.507692,0.11103 0.570312,0.01 0.0252,-0.0407 0.167351,-0.073 0.314453,-0.0723 0.444499,0.002 1.69272,-0.16881 1.851563,-0.25391 0.143964,-0.077 0.735869,-0.110549 2.28125,-0.126949 0.407073,-0.004 0.781091,-0.0353 0.832031,-0.0684 0.05095,-0.0331 0.285185,-0.002 0.521485,0.0684 0.236258,0.0709 0.48686,0.105019 0.55664,0.0781 0.06985,-0.0269 0.190962,0.009 0.269531,0.0801 0.129907,0.11673 0.154952,0.11652 0.275391,-0.004 0.09845,-0.0985 0.30748,-0.13362 0.8125,-0.14062 1.157662,-0.0165 2.065399,0.0281 2.220703,0.111331 0.158843,0.085 1.407064,0.256899 1.851563,0.253899 0.147087,-8e-4 0.28731,0.0314 0.3125,0.0723 0.06262,0.10029 0.506422,0.0937 0.570312,-0.01 0.02848,-0.0452 0.08449,-0.0648 0.123047,-0.041 0.123575,0.0762 0.605237,0.13745 1.033203,0.12695 0.308118,-0.007 0.473472,0.0357 0.636719,0.16406 0.121157,0.0953 0.358986,0.19566 0.529297,0.22266 0.170312,0.0271 0.427222,0.13826 0.572265,0.24805 0.145059,0.10977 0.301674,0.17759 0.345704,0.15039 0.04403,-0.0272 0.102509,-0.0127 0.130859,0.0332 0.02842,0.0461 0.125997,0.084 0.216797,0.084 0.09077,0 0.2449,0.0443 0.34375,0.0977 0.0988,0.0533 0.256079,0.10364 0.349609,0.11524 0.49302,0.055 2.173828,0.65452 2.173828,0.77539 0,0.0809 0.711572,0.57421 0.828125,0.57421 0.07818,0 0.408422,0.1663 0.488282,0.2461 0.04144,0.0414 0.351076,0.16675 0.84375,0.3418 0.477826,0.16976 1.448023,0.6561 1.546873,0.77539 0.0531,0.064 0.15722,0.11718 0.23047,0.11718 0.15694,0 0.99805,0.56291 0.99805,0.66797 0,0.0396 0.0634,0.0735 0.14258,0.0742 0.0792,10e-4 0.28912,0.11169 0.46679,0.24609 0.17768,0.13448 0.37371,0.2461 0.43555,0.2461 0.17038,0 1.66797,0.74518 1.66797,0.83008 0,0.0409 0.12129,0.0742 0.26953,0.0742 0.14824,0 0.34244,0.0502 0.43164,0.11133 0.0892,0.0612 0.40325,0.13562 0.69726,0.16602 0.83475,0.0863 0.95357,0.11001 1.16211,0.22656 0.50349,0.28221 1.04497,0.31605 4.24024,0.27735 3.06486,-0.0372 3.75868,-0.0751 3.9375,-0.21485 0.0482,-0.0375 0.30578,-0.076 0.57422,-0.084 0.36889,-0.0116 0.5144,-0.0513 0.5957,-0.16602 0.0591,-0.0833 0.17963,-0.15234 0.26562,-0.15234 0.0862,0 0.22239,-0.0719 0.30469,-0.16016 0.0824,-0.0884 0.2234,-0.16332 0.3125,-0.16406 0.089,0 0.29091,-0.002 0.44922,-0.006 0.299,-0.006 1.11604,-0.36591 1.68555,-0.74219 0.43107,-0.28484 0.70257,-0.42909 1.39844,-0.74219 0.31662,-0.14245 0.6415,-0.31691 0.7207,-0.38671 0.0791,-0.0699 0.14258,-0.10016 0.14258,-0.0684 0,0.0318 0.15859,-0.0452 0.35156,-0.17188 0.19299,-0.12655 0.41002,-0.2673 0.48242,-0.3125 0.0725,-0.0452 0.38601,-0.25253 0.69727,-0.46094 0.31124,-0.20839 0.67681,-0.43756 0.8125,-0.50976 0.13568,-0.0722 0.42688,-0.31833 0.64648,-0.54688 0.21963,-0.22856 0.4841,-0.43699 0.58789,-0.46289 0.26973,-0.0677 0.71759,-0.64179 0.5957,-0.76367 -0.07,-0.0697 -0.0697,-0.0937 0.004,-0.0937 0.0542,0 0.0996,-0.0704 0.0996,-0.1582 0,-0.0879 0.0397,-0.1859 0.0898,-0.2168 0.0628,-0.0388 0.0734,-0.27529 0.0332,-0.75781 -0.053,-0.636317 -0.0851,-0.735897 -0.35742,-1.093746 -0.18144,-0.2384501 -0.36828,-0.3963901 -0.47071,-0.4003901 -0.0931,-0.003 -0.24032,-0.0585 -0.32812,-0.125 -0.18459,-0.1396 -0.49642,-0.16268 -0.57032,-0.043 -0.0279,0.0453 -0.16247,0.082 -0.29687,0.082 -0.13572,0 -0.26406,0.0522 -0.28906,0.11719 -0.0247,0.0645 -0.18981,0.14187 -0.36719,0.17187 -0.20437,0.0346 -0.32227,0.0991 -0.32227,0.1757801 0,0.0662 -0.0368,0.0963 -0.082,0.0684 -0.0452,-0.0278 -0.16488,0.008 -0.26562,0.0781 -0.10061,0.0704 -0.24025,0.128899 -0.31055,0.128899 -0.0704,0 -0.3306,0.10611 -0.57812,0.236329 -1.25397,0.659439 -1.96685,0.943018 -2.71875,1.082028 -0.28957,0.0536 -0.6129,0.12973 -0.7168,0.16993 -0.25456,0.0992 -2.53727,0.0954 -2.72266,-0.004 -0.0947,-0.0503 -0.25546,-0.0491 -0.44726,0.004 -0.20372,0.0563 -0.34862,0.0552 -0.45899,-0.004 -0.0889,-0.0475 -0.44994,-0.11017 -0.80273,-0.13867 -0.35279,-0.0284 -0.73456,-0.0964 -0.84766,-0.15235 -0.31377,-0.15526 -0.7705,-0.287109 -0.99414,-0.287109 -0.11049,0 -0.38871,-0.0702 -0.61914,-0.15429 -0.23046,-0.0843 -0.56125,-0.17854 -0.73437,-0.21094 -0.17312,-0.0325 -0.47213,-0.168689 -0.66407,-0.300779 -0.19195,-0.132039 -0.45703,-0.240239 -0.58984,-0.240239 -0.13275,0 -0.32957,-0.0694 -0.4375,-0.15429 -0.10788,-0.0848 -0.37292,-0.21341 -0.58984,-0.2871099 -0.2169,-0.0736 -0.47191,-0.20692 -0.56641,-0.29492 -0.0945,-0.0881 -0.28766,-0.21375 -0.42969,-0.28125 -0.27408,-0.13004 -1.03515,-0.83814 -1.03515,-0.96289 0,-0.0409 -0.0755,-0.0742 -0.16602,-0.0742 -0.0906,0 -0.16406,-0.0368 -0.16406,-0.082 0,-0.0453 -0.0554,-0.082 -0.12305,-0.082 -0.0678,0 -0.19661,-0.0755 -0.28711,-0.16601 -0.0904,-0.0906 -0.2038,-0.16406 -0.25,-0.16406 -0.0462,0 -0.12428,-0.092 -0.17578,-0.20508 -0.0515,-0.11308 -0.12691,-0.20508 -0.16601,-0.20508 -0.0391,0 -0.10394,-0.0885 -0.14454,-0.19531 -0.0465,-0.1224 -0.16442,-0.21139 -0.31836,-0.24219 -0.15943,-0.0319 -0.30371,-0.14719 -0.41796,-0.33203 -0.0962,-0.15564 -0.30807,-0.34653 -0.47071,-0.42383 -0.16265,-0.0772 -0.48637,-0.28473 -0.71875,-0.46094 -0.23241,-0.17622 -0.47099,-0.32031 -0.53125,-0.32031 -0.19667,-6.2e-4 -1.01259,-0.59514 -1.08789,-0.79297 -0.0404,-0.10621 -0.12461,-0.19336 -0.1875,-0.19336 -0.0628,0 -0.22025,-0.0838 -0.34961,-0.18554 -0.12937,-0.10176 -0.25554,-0.17762 -0.27929,-0.16602 -0.0798,0.0362 -0.362192,-0.0809 -0.480472,-0.19922 -0.06448,-0.0644 -0.165386,-0.0982 -0.222656,-0.0762 -0.0572,0.022 -0.187842,-0.0504 -0.291016,-0.16016 -0.103171,-0.10986 -0.226611,-0.19922 -0.275391,-0.19922 -0.04865,0 -0.192967,-0.1314 -0.320312,-0.29101 -0.12736,-0.15962 -0.383644,-0.39064 -0.56836,-0.51367 -0.460024,-0.30651 -0.473438,-0.31422 -0.845703,-0.43164 -0.290059,-0.0915 -0.618321,-0.3124501 -1.03125,-0.6953203 -0.06966,-0.0645 -0.202765,-0.11247 -0.296875,-0.10546 -0.255381,0.0192 -1.484271,-0.3694002 -1.802734,-0.57032018 -0.163938,-0.10338001 -0.885886,-0.21362 -1.386719,-0.21289 -0.132785,3.9e-4 -0.31574,-0.0679 -0.40625,-0.15234 -0.09061,-0.0845 -0.203893,-0.15421 -0.251953,-0.15821 -0.04803,-0.003 -1.179368,-0.021 -2.513672,-0.0391 -1.334319,-0.0182 -2.536184,-0.038 -2.671875,-0.043 -0.365013,-0.0145 -6.791279,-0.0183 -7.03125,-0.004 z"
     id="path4700"
     inkscape:connector-curvature="0" />
</svg>
